<svg xmlns="http://www.w3.org/2000/svg" width="980" height="444" viewBox="0 0 980 444">
<rect width="100%" height="100%" fill="#ffffff"/>
<text x="24" y="32" font-family="Arial, sans-serif" font-size="20" font-weight="700" fill="#111827">Highest-spread scoring criteria</text>
<text x="24" y="52" font-family="Arial, sans-serif" font-size="12" fill="#4b5563">Higher spread means the criterion separates candidates more strongly.</text>
<text x="24" y="77" font-family="Arial, sans-serif" font-size="13" fill="#111827">multi_agent</text>
<rect x="260" y="62" width="650" height="18" rx="3" fill="#f3f4f6"/>
<rect x="260" y="62" width="650.0" height="18" rx="3" fill="#7c3aed"/>
<text x="920" y="77" font-family="Arial, sans-serif" font-size="12" fill="#111827">4.1</text>
<text x="24" y="111" font-family="Arial, sans-serif" font-size="13" fill="#111827">maturity</text>
<rect x="260" y="96" width="650" height="18" rx="3" fill="#f3f4f6"/>
<rect x="260" y="96" width="586.6" height="18" rx="3" fill="#7c3aed"/>
<text x="920" y="111" font-family="Arial, sans-serif" font-size="12" fill="#111827">3.7</text>
<text x="24" y="145" font-family="Arial, sans-serif" font-size="13" fill="#111827">ci_pr</text>
<rect x="260" y="130" width="650" height="18" rx="3" fill="#f3f4f6"/>
<rect x="260" y="130" width="570.7" height="18" rx="3" fill="#7c3aed"/>
<text x="920" y="145" font-family="Arial, sans-serif" font-size="12" fill="#111827">3.6</text>
<text x="24" y="179" font-family="Arial, sans-serif" font-size="13" fill="#111827">observability</text>
<rect x="260" y="164" width="650" height="18" rx="3" fill="#f3f4f6"/>
<rect x="260" y="164" width="570.7" height="18" rx="3" fill="#7c3aed"/>
<text x="920" y="179" font-family="Arial, sans-serif" font-size="12" fill="#111827">3.6</text>
<text x="24" y="213" font-family="Arial, sans-serif" font-size="13" fill="#111827">research_reproducibility</text>
<rect x="260" y="198" width="650" height="18" rx="3" fill="#f3f4f6"/>
<rect x="260" y="198" width="570.7" height="18" rx="3" fill="#7c3aed"/>
<text x="920" y="213" font-family="Arial, sans-serif" font-size="12" fill="#111827">3.6</text>
<text x="24" y="247" font-family="Arial, sans-serif" font-size="13" fill="#111827">persistence_memory</text>
<rect x="260" y="232" width="650" height="18" rx="3" fill="#f3f4f6"/>
<rect x="260" y="232" width="539.0" height="18" rx="3" fill="#7c3aed"/>
<text x="920" y="247" font-family="Arial, sans-serif" font-size="12" fill="#111827">3.4</text>
<text x="24" y="281" font-family="Arial, sans-serif" font-size="13" fill="#111827">provider_portability</text>
<rect x="260" y="266" width="650" height="18" rx="3" fill="#f3f4f6"/>
<rect x="260" y="266" width="523.2" height="18" rx="3" fill="#7c3aed"/>
<text x="920" y="281" font-family="Arial, sans-serif" font-size="12" fill="#111827">3.3</text>
<text x="24" y="315" font-family="Arial, sans-serif" font-size="13" fill="#111827">sandbox_isolation</text>
<rect x="260" y="300" width="650" height="18" rx="3" fill="#f3f4f6"/>
<rect x="260" y="300" width="523.2" height="18" rx="3" fill="#7c3aed"/>
<text x="920" y="315" font-family="Arial, sans-serif" font-size="12" fill="#111827">3.3</text>
<text x="24" y="349" font-family="Arial, sans-serif" font-size="13" fill="#111827">extensibility</text>
<rect x="260" y="334" width="650" height="18" rx="3" fill="#f3f4f6"/>
<rect x="260" y="334" width="443.9" height="18" rx="3" fill="#7c3aed"/>
<text x="920" y="349" font-family="Arial, sans-serif" font-size="12" fill="#111827">2.8</text>
<text x="24" y="383" font-family="Arial, sans-serif" font-size="13" fill="#111827">security_governance</text>
<rect x="260" y="368" width="650" height="18" rx="3" fill="#f3f4f6"/>
<rect x="260" y="368" width="443.9" height="18" rx="3" fill="#7c3aed"/>
<text x="920" y="383" font-family="Arial, sans-serif" font-size="12" fill="#111827">2.8</text>
</svg>
