<svg xmlns="http://www.w3.org/2000/svg" width="960" height="442" viewBox="0 0 960 442">
<rect width="100%" height="100%" fill="#ffffff"/>
<text x="24" y="32" font-family="Arial, sans-serif" font-size="20" font-weight="700" fill="#111827">Rank stability: mean Monte Carlo top-3 rate</text>
<text x="24" y="52" font-family="Arial, sans-serif" font-size="12" fill="#4b5563">Higher is better. Top 10 candidates by cross-scenario stability.</text>
<text x="24" y="75" font-family="Arial, sans-serif" font-size="13" fill="#111827">OpenHands Software Agent SDK</text>
<rect x="250" y="60" width="650" height="18" rx="3" fill="#e5e7eb"/>
<rect x="250" y="60" width="491.2" height="18" rx="3" fill="#2563eb"/>
<text x="910" y="75" font-family="Arial, sans-serif" font-size="12" fill="#111827">0.76</text>
<text x="24" y="109" font-family="Arial, sans-serif" font-size="13" fill="#111827">Cline / Cline SDK</text>
<rect x="250" y="94" width="650" height="18" rx="3" fill="#e5e7eb"/>
<rect x="250" y="94" width="451.8" height="18" rx="3" fill="#2563eb"/>
<text x="910" y="109" font-family="Arial, sans-serif" font-size="12" fill="#111827">0.70</text>
<text x="24" y="143" font-family="Arial, sans-serif" font-size="13" fill="#111827">Deep Agents</text>
<rect x="250" y="128" width="650" height="18" rx="3" fill="#e5e7eb"/>
<rect x="250" y="128" width="260.3" height="18" rx="3" fill="#2563eb"/>
<text x="910" y="143" font-family="Arial, sans-serif" font-size="12" fill="#111827">0.40</text>
<text x="24" y="177" font-family="Arial, sans-serif" font-size="13" fill="#111827">Codex CLI</text>
<rect x="250" y="162" width="650" height="18" rx="3" fill="#e5e7eb"/>
<rect x="250" y="162" width="173.7" height="18" rx="3" fill="#2563eb"/>
<text x="910" y="177" font-family="Arial, sans-serif" font-size="12" fill="#111827">0.27</text>
<text x="24" y="211" font-family="Arial, sans-serif" font-size="13" fill="#111827">OpenCode</text>
<rect x="250" y="196" width="650" height="18" rx="3" fill="#e5e7eb"/>
<rect x="250" y="196" width="54.7" height="18" rx="3" fill="#2563eb"/>
<text x="910" y="211" font-family="Arial, sans-serif" font-size="12" fill="#111827">0.08</text>
<text x="24" y="245" font-family="Arial, sans-serif" font-size="13" fill="#111827">SWE-agent</text>
<rect x="250" y="230" width="650" height="18" rx="3" fill="#e5e7eb"/>
<rect x="250" y="230" width="98.4" height="18" rx="3" fill="#2563eb"/>
<text x="910" y="245" font-family="Arial, sans-serif" font-size="12" fill="#111827">0.15</text>
<text x="24" y="279" font-family="Arial, sans-serif" font-size="13" fill="#111827">mini-SWE-agent</text>
<rect x="250" y="264" width="650" height="18" rx="3" fill="#e5e7eb"/>
<rect x="250" y="264" width="103.6" height="18" rx="3" fill="#2563eb"/>
<text x="910" y="279" font-family="Arial, sans-serif" font-size="12" fill="#111827">0.16</text>
<text x="24" y="313" font-family="Arial, sans-serif" font-size="13" fill="#111827">Open SWE</text>
<rect x="250" y="298" width="650" height="18" rx="3" fill="#e5e7eb"/>
<rect x="250" y="298" width="108.4" height="18" rx="3" fill="#2563eb"/>
<text x="910" y="313" font-family="Arial, sans-serif" font-size="12" fill="#111827">0.17</text>
<text x="24" y="347" font-family="Arial, sans-serif" font-size="13" fill="#111827">OpenHands Agent Canvas</text>
<rect x="250" y="332" width="650" height="18" rx="3" fill="#e5e7eb"/>
<rect x="250" y="332" width="87.2" height="18" rx="3" fill="#2563eb"/>
<text x="910" y="347" font-family="Arial, sans-serif" font-size="12" fill="#111827">0.13</text>
<text x="24" y="381" font-family="Arial, sans-serif" font-size="13" fill="#111827">Omnigent</text>
<rect x="250" y="366" width="650" height="18" rx="3" fill="#e5e7eb"/>
<rect x="250" y="366" width="53.7" height="18" rx="3" fill="#2563eb"/>
<text x="910" y="381" font-family="Arial, sans-serif" font-size="12" fill="#111827">0.08</text>
</svg>
