<svg xmlns="http://www.w3.org/2000/svg" width="1000" height="444" viewBox="0 0 1000 444">
<rect width="100%" height="100%" fill="#ffffff"/>
<text x="24" y="32" font-family="Arial, sans-serif" font-size="20" font-weight="700" fill="#111827">Pilot operating effort: monthly hours</text>
<text x="24" y="52" font-family="Arial, sans-serif" font-size="12" fill="#4b5563">Lower is better. Controlled pilot profile with 100 tasks/month.</text>
<text x="24" y="77" font-family="Arial, sans-serif" font-size="13" fill="#111827">Codex CLI</text>
<rect x="270" y="62" width="640" height="18" rx="3" fill="#f3f4f6"/>
<rect x="270" y="62" width="564.1" height="18" rx="3" fill="#059669"/>
<text x="920" y="77" font-family="Arial, sans-serif" font-size="12" fill="#111827">52.8h</text>
<text x="24" y="111" font-family="Arial, sans-serif" font-size="13" fill="#111827">Cline / Cline SDK</text>
<rect x="270" y="96" width="640" height="18" rx="3" fill="#f3f4f6"/>
<rect x="270" y="96" width="572.6" height="18" rx="3" fill="#059669"/>
<text x="920" y="111" font-family="Arial, sans-serif" font-size="12" fill="#111827">53.6h</text>
<text x="24" y="145" font-family="Arial, sans-serif" font-size="13" fill="#111827">OpenHands Software Agent SDK</text>
<rect x="270" y="130" width="640" height="18" rx="3" fill="#f3f4f6"/>
<rect x="270" y="130" width="599.3" height="18" rx="3" fill="#059669"/>
<text x="920" y="145" font-family="Arial, sans-serif" font-size="12" fill="#111827">56.1h</text>
<text x="24" y="179" font-family="Arial, sans-serif" font-size="13" fill="#111827">OpenCode</text>
<rect x="270" y="164" width="640" height="18" rx="3" fill="#f3f4f6"/>
<rect x="270" y="164" width="615.1" height="18" rx="3" fill="#059669"/>
<text x="920" y="179" font-family="Arial, sans-serif" font-size="12" fill="#111827">57.6h</text>
<text x="24" y="213" font-family="Arial, sans-serif" font-size="13" fill="#111827">Deep Agents</text>
<rect x="270" y="198" width="640" height="18" rx="3" fill="#f3f4f6"/>
<rect x="270" y="198" width="616.0" height="18" rx="3" fill="#059669"/>
<text x="920" y="213" font-family="Arial, sans-serif" font-size="12" fill="#111827">57.6h</text>
<text x="24" y="247" font-family="Arial, sans-serif" font-size="13" fill="#111827">Open SWE</text>
<rect x="270" y="232" width="640" height="18" rx="3" fill="#f3f4f6"/>
<rect x="270" y="232" width="618.4" height="18" rx="3" fill="#059669"/>
<text x="920" y="247" font-family="Arial, sans-serif" font-size="12" fill="#111827">57.9h</text>
<text x="24" y="281" font-family="Arial, sans-serif" font-size="13" fill="#111827">OpenHands Agent Canvas</text>
<rect x="270" y="266" width="640" height="18" rx="3" fill="#f3f4f6"/>
<rect x="270" y="266" width="622.3" height="18" rx="3" fill="#059669"/>
<text x="920" y="281" font-family="Arial, sans-serif" font-size="12" fill="#111827">58.2h</text>
<text x="24" y="315" font-family="Arial, sans-serif" font-size="13" fill="#111827">goose</text>
<rect x="270" y="300" width="640" height="18" rx="3" fill="#f3f4f6"/>
<rect x="270" y="300" width="623.2" height="18" rx="3" fill="#059669"/>
<text x="920" y="315" font-family="Arial, sans-serif" font-size="12" fill="#111827">58.3h</text>
<text x="24" y="349" font-family="Arial, sans-serif" font-size="13" fill="#111827">Aider</text>
<rect x="270" y="334" width="640" height="18" rx="3" fill="#f3f4f6"/>
<rect x="270" y="334" width="631.3" height="18" rx="3" fill="#059669"/>
<text x="920" y="349" font-family="Arial, sans-serif" font-size="12" fill="#111827">59.1h</text>
<text x="24" y="383" font-family="Arial, sans-serif" font-size="13" fill="#111827">Flue</text>
<rect x="270" y="368" width="640" height="18" rx="3" fill="#f3f4f6"/>
<rect x="270" y="368" width="640.0" height="18" rx="3" fill="#059669"/>
<text x="920" y="383" font-family="Arial, sans-serif" font-size="12" fill="#111827">59.9h</text>
</svg>
